<svg width="1024" height="768" xmlns="http://www.w3.org/2000/svg">

 <g>
  <title>background</title>
  <rect fill="none" id="canvas_background" height="770" width="1026" y="-1" x="-1"/>
 </g>
 <g>
  <title>Layer 1</title>
  <polygon fill="#86c232" id="svg_1" points="947.5652956962585,473.9299011230469 927.1855959892273,318.38336181640625 743.6450686454773,128.15521240234375 658.983386516571,296.961181640625 592.3382449150085,129.56842041015625 472.9021487236023,27.84000015258789 328.56874418258667,315.6650695800781 226.7012972831726,183.34786987304688 5.729856967926025,624.201904296875 26.44158697128296,634.5963745117188 234.49331998825073,219.72853088378906 234.1380648612976,341.85205078125 298.5668215751648,430.7842712402344 237.30429410934448,510.71209716796875 418.71339750289917,686.1362915039062 343.33412504196167,462.7013854980469 379.58351469039917,381.84686279296875 344.26854276657104,336.029296875 475.77492094039917,73.79656219482422 452.28309965133667,221.1494903564453 503.10484647750854,303.00018310546875 485.23497343063354,442.8391418457031 588.6932253837585,333.81292724609375 670.4512820243835,325.7660827636719 751.1744875907898,164.80615234375 779.9253420829773,396.7049560546875 672.9224734306335,447.488037109375 625.7457156181335,686.1362915039062 823.5265383720398,525.4852294921875 1017.8245120048523,611.0968017578125 "/>
 </g>
</svg>